HIERARCHY
ROOT Hips
{
	OFFSET 54.752899 -60.120716 96.627693
	CHANNELS 6 Xposition Yposition Zposition Xrotation Yrotation Zrotation
	JOINT spine
	{
		OFFSET 0.000000 -0.467659 8.132492
		CHANNELS 3 Xrotation Yrotation Zrotation
		JOINT spine1
		{
			OFFSET 0.000000 -0.000004 10.349800
			CHANNELS 3 Xrotation Yrotation Zrotation
			JOINT spine2
			{
				OFFSET 0.000000 0.000000 9.916992
				CHANNELS 3 Xrotation Yrotation Zrotation
				JOINT Neck
				{
					OFFSET 0.000000 -1.213905 25.460999
					CHANNELS 3 Xrotation Yrotation Zrotation
					JOINT Head
					{
						OFFSET 0.000000 -0.000004 7.692444
						CHANNELS 3 Xrotation Yrotation Zrotation
						End Site
						{
							OFFSET 0.000000 6.140625 18.619995
						}
					}
				}
				JOINT RightShoulder
				{
					OFFSET -4.175751 0.581440 10.709595
					CHANNELS 3 Xrotation Yrotation Zrotation
					JOINT RightArm
					{
						OFFSET 0.000000 0.000000 14.046600
						CHANNELS 3 Xrotation Yrotation Zrotation
						JOINT RightArmRoll
						{
							OFFSET 0.000000 -0.000004 7.090988
							CHANNELS 3 Xrotation Yrotation Zrotation
							JOINT RightForeArm
							{
								OFFSET 0.000000 -0.000004 20.653503
								CHANNELS 3 Xrotation Yrotation Zrotation
								JOINT RightForeArmRoll
								{
									OFFSET 0.000000 0.000000 7.957184
									CHANNELS 3 Xrotation Yrotation Zrotation
									JOINT RightHand
									{
										OFFSET 0.000000 -0.000004 15.968292
										CHANNELS 3 Xrotation Yrotation Zrotation
										End Site
										{
											OFFSET 0.000000 0.000000 0.100006
										}
									}
								}
							}
						}
					}
				}
				JOINT LeftShoulder
				{
					OFFSET 4.175751 0.581440 10.709595
					CHANNELS 3 Xrotation Yrotation Zrotation
					JOINT LeftArm
					{
						OFFSET 0.000000 0.000000 14.046600
						CHANNELS 3 Xrotation Yrotation Zrotation
						JOINT LeftArmRoll
						{
							OFFSET 0.000000 -0.000004 7.090988
							CHANNELS 3 Xrotation Yrotation Zrotation
							JOINT LeftForeArm
							{
								OFFSET 0.000000 -0.000004 20.653503
								CHANNELS 3 Xrotation Yrotation Zrotation
								JOINT LeftForeArmRoll
								{
									OFFSET 0.000000 0.000000 7.957184
									CHANNELS 3 Xrotation Yrotation Zrotation
									JOINT LeftHand
									{
										OFFSET 0.000000 -0.000004 15.968292
										CHANNELS 3 Xrotation Yrotation Zrotation
										End Site
										{
											OFFSET 0.000000 0.000000 0.100006
										}
									}
								}
							}
						}
					}
				}
			}
		}
	}
	JOINT RightUpLeg
	{
		OFFSET -7.208340 1.108841 -1.321823
		CHANNELS 3 Xrotation Yrotation Zrotation
		JOINT RightUpLegRoll
		{
			OFFSET 0.000000 -0.000004 18.723801
			CHANNELS 3 Xrotation Yrotation Zrotation
			JOINT RightLeg
			{
				OFFSET 0.000000 0.000004 -23.186600
				CHANNELS 3 Xrotation Yrotation Zrotation
				JOINT RightLegRoll
				{
					OFFSET 0.000000 -0.000004 23.262398
					CHANNELS 3 Xrotation Yrotation Zrotation
					JOINT RightFoot
					{
						OFFSET 0.000000 -0.000004 19.362091
						CHANNELS 3 Xrotation Yrotation Zrotation
						JOINT RightToeBase
						{
							OFFSET 0.000000 0.000000 16.185699
							CHANNELS 3 Xrotation Yrotation Zrotation
							End Site
							{
								OFFSET 0.006859 0.903519 7.838623
							}
						}
					}
				}
			}
		}
	}
	JOINT LeftUpLeg
	{
		OFFSET 7.208340 1.108841 -1.321823
		CHANNELS 3 Xrotation Yrotation Zrotation
		JOINT LeftUpLegRoll
		{
			OFFSET 0.000000 -0.000004 18.723900
			CHANNELS 3 Xrotation Yrotation Zrotation
			JOINT LeftLeg
			{
				OFFSET 0.000000 -0.000004 23.186493
				CHANNELS 3 Xrotation Yrotation Zrotation
				JOINT LeftLegRoll
				{
					OFFSET 0.000000 -0.000004 23.477509
					CHANNELS 3 Xrotation Yrotation Zrotation
					JOINT LeftFoot
					{
						OFFSET 0.000000 -0.000004 19.147003
						CHANNELS 3 Xrotation Yrotation Zrotation
						JOINT LeftToeBase
						{
							OFFSET 0.000000 0.000000 16.185699
							CHANNELS 3 Xrotation Yrotation Zrotation
							End Site
							{
								OFFSET -0.030746 0.903519 7.838623
							}
						}
					}
				}
			}
		}
	}
}
MOTION
Frames: 11
Frame Time: 0.041667
55.305099 -13.982410 55.956692 -10.392114 1.502769 -0.345008 1.572810 -0.840122 -0.165719 7.135769 -1.681800 -0.279009 8.781154 -1.696906 -0.258694 -3.446102 5.132125 -2.904504 3.447289 -4.320726 -3.350443 -19.022429 -53.742053 -22.495831 -48.546792 -140.230791 -60.372343 0.000001 0.000001 -0.000009 38.760637 -14.828534 3.883751 -0.000009 -0.000004 -3.010131 -4.999716 -7.998768 0.000017 -18.538551 62.717550 21.918861 -56.971943 134.528403 72.350186 -0.000001 -0.000000 0.000003 33.673680 10.214092 -3.185722 0.000003 -0.000015 3.001500 -5.000128 7.998795 -0.000148 -78.121634 -168.048130 4.151047 -179.999991 0.000005 -1.055996 94.552563 -0.126032 -3.429993 0.000004 0.000001 1.857499 67.655496 7.843623 -0.162938 25.456953 -7.355613 0.000008 -78.307381 168.806595 -2.674053 -0.000035 -0.000002 -1.390939 -86.467094 -2.270834 0.441140 0.000003 0.000002 -2.125940 62.803883 -7.803676 -0.469681 25.458821 7.354711 -0.002845 
55.299801 -13.970112 55.956005 -10.386924 1.505254 -0.342832 1.572856 -0.840084 -0.165720 7.135534 -1.683051 -0.279589 8.780914 -1.697302 -0.259272 -3.446053 5.134350 -2.905605 3.457609 -4.327647 -3.350725 -19.024619 -53.744850 -22.498476 -48.546963 -140.226857 -60.374146 -0.000003 0.000001 -0.000009 38.782285 -14.823587 3.884068 -0.000009 -0.000003 -3.010130 -4.999717 -7.998768 0.000018 -18.536175 62.713021 21.916095 -56.965533 134.527092 72.347645 0.000001 -0.000001 0.000003 33.682456 10.213073 -3.186350 0.000001 -0.000014 3.001499 -5.000130 7.998794 -0.000150 -78.124810 -168.047543 4.161970 -179.999991 0.000005 -1.056994 94.559379 -0.132672 -3.433709 0.000004 0.000001 1.858299 67.647819 7.849268 -0.176173 25.456957 -7.355615 0.000008 -78.315393 168.814723 -2.664514 -0.000035 -0.000003 -1.390409 -86.461801 -2.271665 0.441275 0.000003 0.000002 -2.126000 62.805755 -7.802454 -0.472551 25.458821 7.354711 -0.002844 
55.303299 -13.977818 55.957890 -10.381833 1.507806 -0.340505 1.572899 -0.840034 -0.165720 7.135248 -1.684352 -0.280177 8.780627 -1.697729 -0.259855 -3.446137 5.136656 -2.906689 3.468128 -4.334626 -3.350987 -19.026808 -53.747640 -22.501141 -48.547981 -140.222363 -60.376687 -0.000003 0.000001 -0.000009 38.803917 -14.818553 3.884356 -0.000010 -0.000003 -3.010131 -4.999712 -7.998766 0.000017 -18.533575 62.708527 21.913062 -56.959229 134.525849 72.345084 0.000000 0.000000 0.000003 33.690632 10.212121 -3.186919 0.000002 -0.000014 3.001500 -5.000131 7.998792 -0.000151 -78.127973 -168.046532 4.172743 -179.999991 0.000005 -1.058005 94.566571 -0.139730 -3.437437 0.000004 0.000001 1.859139 67.639425 7.855330 -0.190270 25.456957 -7.355616 0.000010 -78.323678 168.822742 -2.653166 -0.000035 -0.000004 -1.389889 -86.456302 -2.272540 0.441313 0.000003 0.000001 -2.126069 62.807517 -7.801209 -0.475521 25.458823 7.354713 -0.002844 
55.303799 -13.978107 55.956783 -10.376643 1.510408 -0.338076 1.572950 -0.839977 -0.165719 7.134924 -1.685692 -0.280769 8.780308 -1.698184 -0.260440 -3.446301 5.139020 -2.907763 3.478805 -4.341654 -3.351240 -19.029209 -53.750508 -22.504053 -48.548985 -140.217882 -60.379104 -0.000003 0.000001 -0.000009 38.825425 -14.813379 3.884508 -0.000009 -0.000004 -3.010129 -4.999717 -7.998768 0.000017 -18.530781 62.703951 21.909818 -56.953881 134.524127 72.343895 0.000003 -0.000000 0.000004 33.698309 10.211312 -3.187482 -0.000000 -0.000013 3.001500 -5.000135 7.998794 -0.000150 -78.131060 -168.045453 4.184028 -179.999991 0.000006 -1.059999 94.574044 -0.147142 -3.443114 0.000005 0.000001 1.860019 67.630675 7.861590 -0.204902 25.456950 -7.355614 0.000008 -78.331833 168.830993 -2.642414 -0.000035 -0.000004 -1.389370 -86.450681 -2.273411 0.441549 0.000003 0.000002 -2.126131 62.809252 -7.799923 -0.478480 25.458820 7.354711 -0.002846 
55.307098 -13.982613 55.955196 -10.371458 1.513030 -0.335591 1.572987 -0.839915 -0.165720 7.134578 -1.687063 -0.281362 8.779959 -1.698641 -0.261030 -3.446515 5.141416 -2.908829 3.489555 -4.348702 -3.351487 -19.031610 -53.753374 -22.506962 -48.550118 -140.213456 -60.381413 0.000001 0.000001 -0.000010 38.846940 -14.808289 3.884732 -0.000010 -0.000004 -3.010130 -4.999716 -7.998769 0.000017 -18.527831 62.699299 21.906389 -56.947764 134.523035 72.341566 0.000001 0.000001 0.000002 33.705887 10.210515 -3.188052 0.000002 -0.000014 3.001499 -5.000129 7.998797 -0.000148 -78.134086 -168.044319 4.195730 -179.999991 0.000006 -1.060997 94.581598 -0.154664 -3.447816 0.000004 0.000001 1.860911 67.621673 7.868060 -0.219973 25.456948 -7.355614 0.000007 -78.339886 168.839544 -2.632129 -0.000035 -0.000003 -1.388850 -86.444971 -2.274326 0.441593 0.000003 0.000002 -2.126190 62.810905 -7.798708 -0.481468 25.458823 7.354710 -0.002846 
55.306099 -13.984913 55.954903 -10.366266 1.515662 -0.333090 1.573029 -0.839852 -0.165720 7.134223 -1.688434 -0.281957 8.779612 -1.699097 -0.261619 -3.446747 5.143820 -2.909895 3.500343 -4.355758 -3.351733 -19.034009 -53.756232 -22.509877 -48.551228 -140.209044 -60.383708 -0.000002 0.000001 -0.000010 38.868540 -14.803100 3.884904 -0.000009 -0.000005 -3.010130 -4.999717 -7.998768 0.000017 -18.524914 62.694744 21.902999 -56.941743 134.522010 72.339319 0.000004 0.000000 0.000002 33.713360 10.209728 -3.188603 0.000003 -0.000014 3.001500 -5.000130 7.998792 -0.000149 -78.137023 -168.043090 4.207347 -179.999991 0.000006 -1.061994 94.589241 -0.162210 -3.452505 0.000003 0.000001 1.861809 67.612582 7.874565 -0.235131 25.456952 -7.355615 0.000007 -78.348192 168.847959 -2.620849 -0.000035 -0.000003 -1.388330 -86.439254 -2.275223 0.441734 0.000003 0.000002 -2.126250 62.812564 -7.797444 -0.484440 25.458820 7.354714 -0.002846 
55.304199 -13.988018 55.945602 -10.361073 1.518284 -0.330619 1.573070 -0.839792 -0.165720 7.133889 -1.689804 -0.282549 8.779272 -1.699553 -0.262207 -3.446952 5.146215 -2.910962 3.511075 -4.362806 -3.351976 -19.036256 -53.759131 -22.512650 -48.552355 -140.204604 -60.386105 -0.000004 0.000001 -0.000009 38.890035 -14.797924 3.885047 -0.000007 -0.000003 -3.010131 -4.999712 -7.998768 0.000018 -18.521981 62.690079 21.899589 -56.935538 134.520849 72.336928 0.000002 -0.000000 0.000003 33.720944 10.208928 -3.189170 -0.000000 -0.000014 3.001498 -5.000132 7.998794 -0.000151 -78.140117 -168.042038 4.218932 -179.999991 0.000006 -1.063005 94.596781 -0.169699 -3.457195 0.000004 0.000001 1.862689 67.603676 7.880971 -0.250020 25.456953 -7.355615 0.000007 -78.356436 168.856305 -2.609675 -0.000035 -0.000004 -1.387800 -86.433626 -2.276088 0.441770 0.000003 0.000001 -2.126310 62.814210 -7.796230 -0.487328 25.458821 7.354711 -0.002845 
55.306099 -13.990921 55.947102 -10.355887 1.520867 -0.328224 1.573111 -0.839737 -0.165720 7.133574 -1.691135 -0.283138 8.778956 -1.699999 -0.262791 -3.447096 5.148559 -2.912050 3.521707 -4.369822 -3.352223 -19.038654 -53.761990 -22.515546 -48.553366 -140.200138 -60.388530 0.000000 0.000001 -0.000010 38.911554 -14.792829 3.885222 -0.000011 -0.000003 -3.010129 -4.999713 -7.998766 0.000017 -18.519214 62.685502 21.896369 -56.930279 134.519210 72.335706 0.000002 -0.000001 0.000004 33.728816 10.208015 -3.189705 0.000002 -0.000015 3.001501 -5.000134 7.998794 -0.000152 -78.143204 -168.040958 4.230116 -179.999991 0.000005 -1.064001 94.604110 -0.176960 -3.461893 0.000003 0.000001 1.863561 67.595029 7.887250 -0.264653 25.456955 -7.355614 0.000008 -78.364598 168.864570 -2.598915 -0.000035 -0.000004 -1.387280 -86.428025 -2.276977 0.441908 0.000003 0.000001 -2.126369 62.815979 -7.794984 -0.490298 25.458823 7.354710 -0.002844 
55.291698 -13.947117 55.954796 -10.350797 1.523400 -0.325944 1.573159 -0.839691 -0.165719 7.133299 -1.692416 -0.283725 8.778687 -1.700415 -0.263373 -3.447138 5.150835 -2.913139 3.532172 -4.376781 -3.352474 -19.040853 -53.764794 -22.518215 -48.554285 -140.195589 -60.391098 -0.000003 0.000001 -0.000010 38.933181 -14.787786 3.885469 -0.000011 -0.000003 -3.010130 -4.999711 -7.998770 0.000017 -18.516703 62.680994 21.893441 -56.923869 134.517885 72.333172 0.000000 -0.000000 0.000006 33.737098 10.207132 -3.190329 0.000001 -0.000014 3.001502 -5.000129 7.998794 -0.000148 -78.146448 -168.040030 4.240674 -179.999991 0.000006 -1.064999 94.611145 -0.183914 -3.465601 0.000004 0.000001 1.864389 67.586826 7.893216 -0.278375 25.456953 -7.355613 0.000009 -78.372678 168.872753 -2.588783 -0.000035 -0.000004 -1.386760 -86.422541 -2.277863 0.442144 0.000003 0.000002 -2.126430 62.817728 -7.793748 -0.493271 25.458821 7.354712 -0.002846 
55.296700 -13.957821 55.953388 -10.345606 1.525865 -0.323830 1.573208 -0.839656 -0.165719 7.133082 -1.693637 -0.284305 8.778478 -1.700802 -0.263949 -3.447030 5.153032 -2.914246 3.542405 -4.383689 -3.352733 -19.042876 -53.767604 -22.520715 -48.554462 -140.191654 -60.393011 -0.000001 0.000001 -0.000010 38.954850 -14.782981 3.885856 -0.000010 -0.000000 -3.010129 -4.999713 -7.998766 0.000017 -18.514483 62.676555 21.890859 -56.917462 134.516573 72.330535 0.000002 -0.000000 0.000003 33.746062 10.206004 -3.190913 -0.000000 -0.000015 3.001501 -5.000129 7.998794 -0.000150 -78.149699 -168.039510 4.251283 -179.999991 0.000004 -1.065996 94.617887 -0.190469 -3.470324 0.000004 0.000001 1.865160 67.579312 7.898744 -0.291240 25.456950 -7.355613 0.000008 -78.380744 168.880566 -2.578486 -0.000035 -0.000004 -1.386239 -86.417275 -2.278716 0.442177 0.000002 0.000002 -2.126490 62.819681 -7.792454 -0.496216 25.458828 7.354715 -0.002846 
55.301300 -13.975021 55.948593 -10.340514 1.528231 -0.321922 1.573260 -0.839637 -0.165719 7.132937 -1.694779 -0.284877 8.778329 -1.701159 -0.264516 -3.446749 5.155100 -2.915378 3.552359 -4.390500 -3.353009 -19.044867 -53.770336 -22.523109 -48.555149 -140.186983 -60.396139 -0.000002 0.000001 -0.000010 38.976649 -14.778228 3.886272 -0.000012 -0.000006 -3.010130 -4.999714 -7.998767 0.000017 -18.512552 62.672067 21.888617 -56.911622 134.514483 72.328903 0.000004 -0.000000 0.000003 33.755843 10.204782 -3.191578 -0.000001 -0.000014 3.001500 -5.000126 7.998796 -0.000148 -78.153367 -168.039005 4.259846 -179.999991 0.000006 -1.066994 94.624047 -0.196375 -3.474082 0.000004 0.000001 1.865880 67.572708 7.903763 -0.302964 25.456955 -7.355613 0.000007 -78.388578 168.888148 -2.569334 -0.000035 -0.000004 -1.385709 -86.412234 -2.279552 0.442304 0.000002 0.000002 -2.126550 62.821744 -7.791183 -0.499158 25.458827 7.354714 -0.002846 
